<?xml version="1.0" encoding="UTF-8"?>
<svg id="Camada_1" data-name="Camada 1" xmlns="http://www.w3.org/2000/svg" version="1.1" viewBox="0 0 232.94 82.06">
  <defs>
    <style>
      .cls-1 {
        fill: #27375c;
        stroke-width: 0px;
      }
    </style>
  </defs>
  <path class="cls-1" d="M122.7,80.81v1.18l-6.46.02-3.56.02s0,0-.02,0c-6.85-.08-7.66-2.01-7.62-6.94-1.83,4.87-6.1,6.84-10.45,6.84-12.42,0-13.42-11.97-13.43-16.9v-6.46s.05-23.6.05-23.6h10.97l.02,35.96c0,15.16,13.05,6.06,12.85-3.41v-32.54h11.25v24.12s-.05,0-.05,0v16.39c-.03,3.57,4.1,5.13,6.46,5.33Z"/>
  <path class="cls-1" d="M78.51,80.8c-2.76-.27-6.48-1.72-6.48-5.48v-5.43h0l.25-50.86-17.74.04v1.23c2.6.2,6.52,1.58,6.52,5.35l-.03,48.59c0,5.8,1.74,7.8,7.69,7.78.59,0,9.8,0,9.8,0v-1.21Z"/>
  <path class="cls-1" d="M55.62,62.24c-1.52,6.11-6.89,17.03-26.1,17.57l-6.02-.16c-.9-.02-1.79-.18-2.61-.54-4.56-2.02-3.36-6.62-3.44-11.93v.23c.01-12.06.07-27.76.12-31.99,26.63-.77,24.44,33.97,3.83,36.08l-.04,2.11c-.03,1.43,1.05,2.62,2.47,2.72,6.96.46,26.06-.06,28.06-19.44.3-2.88-.35-22.62-18.77-23.2,8.39.26,15.98-5.66,16.26-16.11h0c0-.06,0-.13,0-.2h0C50.24,1.67,25.85-.05,10.93.02,4.4.05,0,0,0,0v1.25c2.61.18,6.5,1.79,6.52,5.77l-.1,68.56c0,3.76-4.15,5.07-6.43,5.29v1.17c5.65,0,17.67,0,26.85,0l2.73.02c20.21-.56,26.4-12.9,28.28-19.59.08-.29-.14-.58-.44-.58h-1.36c-.21,0-.4.14-.45.35ZM17.41,2.97c25.91-3.27,23.82,33.58.06,29.75,0,0-.14-17.49-.06-29.75Z"/>
  <path class="cls-1" d="M232.66,68.17l-1.44-.53c-.21-.08-.45.01-.55.21-1.13,2.25-6.84,12.33-20.82,12.03-8.43-.69-11.73-6.11-9.64-15.22,0,0,30.86-3.49,30.86-18.62,0-3.04-1.63-5.66-4.9-7.85,1.71,14.94-17,19.98-25.43,21.56,3.34-20.38,13.32-24.85,13.32-24.85-29.09.76-37.83,47.69-4.36,47.09,14.99-.27,21.91-10.88,23.2-13.23.13-.23.02-.51-.23-.6Z"/>
  <path class="cls-1" d="M185.96,37.38c-1.78-1.23-4.27-.98-6.19.89-4.33,4.21-.35,10.17,2.1,10.15,1.55-.01,2.71,1.46,2.37,2.98-1.34,6.01-8.5,23.46-15.86,24.34-4.25.51-6.49-4.15-4.74-12.34,1.11-5.22,5.91-26.89,6-28.42h-12.1c-.82,4.81-5.02,32.77-9.07,37.43-1.45,1.67-3.49,3.09-6.34,3.43-4.25.51-6.61-3.7-4.86-11.89,1.8-8.46,5.18-21.21,3.33-25.22-2.18-4.77-4.71-3.62-10.54-3.65l-8.26.02v1.28c5.75.44,7.73,1.45,6.91,8.82-.47,4.63-3.41,14.31-4.24,22.32-.72,7,.93,10.75,3.42,12.83,3,2.5,10.78,2.27,16.6-.86,2.01-1.08,4.44-3.18,6.54-5.48.57,2.74,1.75,4.55,3.23,5.78,4.99,4.16,12.6,1.75,17.2-.94,2.94-1.73,8.9-6.44,14.11-21.89,4.64-13.75,2.49-18.15.39-19.6Z"/>
</svg>